<svg xmlns="http://www.w3.org/2000/svg" width="104.607" height="24.289" viewBox="0 0 104.607 24.289"><defs><style>.a{fill:#fff;}</style></defs><path class="a" d="M215.3,450.338a12.047,12.047,0,1,1,10.438,6.028h-.005a12.045,12.045,0,0,1-5.756-1.465l-6.386,1.674Zm5.338,2.6a10,10,0,0,0,5.1,1.394h0a10.007,10.007,0,1,0-8.481-4.688l.238.378-1.012,3.691,3.789-.993Zm88.95.313V441.831h2.211v1.08h.032a2.559,2.559,0,0,1,1.081-1,3.312,3.312,0,0,1,1.44-.31,3.664,3.664,0,0,1,1.72.376,3.541,3.541,0,0,1,1.194,1,4.217,4.217,0,0,1,.7,1.448,6.412,6.412,0,0,1,.229,1.727,5.794,5.794,0,0,1-.229,1.636,4.153,4.153,0,0,1-.7,1.39,3.441,3.441,0,0,1-1.162.966,3.51,3.51,0,0,1-1.629.36,3.3,3.3,0,0,1-1.449-.32,2.734,2.734,0,0,1-1.089-.94h-.033v4.009Zm3.3-9.662a1.909,1.909,0,0,0-.622.613,2.564,2.564,0,0,0-.336.868,5.183,5.183,0,0,0-.1,1.015,4.7,4.7,0,0,0,.106,1,2.6,2.6,0,0,0,.344.859,1.833,1.833,0,0,0,.631.6,1.877,1.877,0,0,0,2.529-.6,2.449,2.449,0,0,0,.335-.859,5.072,5.072,0,0,0,.1-1,4.656,4.656,0,0,0-.106-1,2.64,2.64,0,0,0-.352-.875,1.948,1.948,0,0,0-.631-.621,1.759,1.759,0,0,0-.941-.238A1.791,1.791,0,0,0,312.881,443.59Zm-12.565,9.662V441.831h2.211v1.08h.033a2.55,2.55,0,0,1,1.08-1,3.31,3.31,0,0,1,1.44-.31,3.659,3.659,0,0,1,1.718.376,3.541,3.541,0,0,1,1.2,1,4.24,4.24,0,0,1,.7,1.448,6.482,6.482,0,0,1,.229,1.727,5.857,5.857,0,0,1-.229,1.636,4.18,4.18,0,0,1-.7,1.39,3.443,3.443,0,0,1-1.162.966,3.5,3.5,0,0,1-1.629.36,3.289,3.289,0,0,1-1.448-.32,2.73,2.73,0,0,1-1.09-.94h-.032v4.009Zm3.3-9.662a1.894,1.894,0,0,0-.622.613,2.563,2.563,0,0,0-.336.868,5.149,5.149,0,0,0-.1,1.015,4.675,4.675,0,0,0,.106,1,2.577,2.577,0,0,0,.344.859,1.827,1.827,0,0,0,.631.6,1.877,1.877,0,0,0,2.529-.6,2.482,2.482,0,0,0,.336-.859,5.1,5.1,0,0,0,.1-1,4.669,4.669,0,0,0-.106-1,2.672,2.672,0,0,0-.352-.875,1.945,1.945,0,0,0-.63-.621,1.761,1.761,0,0,0-.941-.238A1.789,1.789,0,0,0,303.617,443.59Zm-20.356,6.766a3.821,3.821,0,0,1-1.253-.491,2.794,2.794,0,0,1-.9-.908,2.841,2.841,0,0,1-.385-1.415h2.21a1.28,1.28,0,0,0,.156.646,1.352,1.352,0,0,0,.4.442,1.717,1.717,0,0,0,.565.254,2.654,2.654,0,0,0,.662.082,2.472,2.472,0,0,0,.516-.058,1.737,1.737,0,0,0,.491-.18,1.109,1.109,0,0,0,.368-.327.855.855,0,0,0,.147-.515q0-.524-.7-.785a13.8,13.8,0,0,0-1.941-.524c-.338-.077-.668-.166-.99-.271a3.389,3.389,0,0,1-.86-.409,1.977,1.977,0,0,1-.6-.638,1.807,1.807,0,0,1-.23-.941,2.542,2.542,0,0,1,.319-1.342,2.351,2.351,0,0,1,.843-.826,3.711,3.711,0,0,1,1.179-.426,7.335,7.335,0,0,1,1.342-.122,6.682,6.682,0,0,1,1.333.131,3.523,3.523,0,0,1,1.155.442,2.647,2.647,0,0,1,.843.826,2.779,2.779,0,0,1,.4,1.3h-2.21a1.016,1.016,0,0,0-.507-.908,2.326,2.326,0,0,0-1.081-.237,4.106,4.106,0,0,0-.426.024,1.452,1.452,0,0,0-.417.106.874.874,0,0,0-.319.237.624.624,0,0,0-.13.417.633.633,0,0,0,.229.507,1.755,1.755,0,0,0,.6.32,7.669,7.669,0,0,0,.844.221q.475.1.965.213a10.132,10.132,0,0,1,.991.277,3.3,3.3,0,0,1,.859.434,2.1,2.1,0,0,1,.606.671,1.966,1.966,0,0,1,.229.989,2.565,2.565,0,0,1-1.211,2.307,3.59,3.59,0,0,1-1.236.484,7.266,7.266,0,0,1-1.417.139A7.022,7.022,0,0,1,283.261,450.356Zm-15.077,0a2.593,2.593,0,0,1-.917-.459,2.126,2.126,0,0,1-.614-.786,2.651,2.651,0,0,1-.221-1.128,2.47,2.47,0,0,1,.253-1.186,2.134,2.134,0,0,1,.655-.745,2.943,2.943,0,0,1,.917-.417,9.818,9.818,0,0,1,1.039-.221q.523-.081,1.031-.132a6,6,0,0,0,.9-.147,1.553,1.553,0,0,0,.622-.286.629.629,0,0,0,.212-.548,1.233,1.233,0,0,0-.123-.6.9.9,0,0,0-.327-.344,1.288,1.288,0,0,0-.475-.163,3.915,3.915,0,0,0-.581-.041,1.763,1.763,0,0,0-1.08.294,1.314,1.314,0,0,0-.459.982h-2.324a2.69,2.69,0,0,1,.41-1.358,2.774,2.774,0,0,1,.916-.867,4,4,0,0,1,1.253-.466,7.1,7.1,0,0,1,1.4-.139,9.482,9.482,0,0,1,1.293.09,3.962,3.962,0,0,1,1.2.352,2.35,2.35,0,0,1,.883.728,2.027,2.027,0,0,1,.344,1.235v4.4a8.713,8.713,0,0,0,.066,1.1,1.966,1.966,0,0,0,.229.785h-2.358a3.356,3.356,0,0,1-.107-.4,3.515,3.515,0,0,1-.057-.417,3.035,3.035,0,0,1-1.31.8,5.273,5.273,0,0,1-1.538.229A4.167,4.167,0,0,1,268.183,450.356Zm3.512-4a3.8,3.8,0,0,1-.475.123c-.169.032-.346.06-.532.081s-.371.05-.556.082a4.172,4.172,0,0,0-.516.131,1.531,1.531,0,0,0-.442.221,1.061,1.061,0,0,0-.3.352,1.136,1.136,0,0,0-.114.54,1.094,1.094,0,0,0,.114.523.879.879,0,0,0,.311.335,1.3,1.3,0,0,0,.458.172,2.861,2.861,0,0,0,.54.05,2.051,2.051,0,0,0,1.064-.229,1.535,1.535,0,0,0,.557-.548,1.747,1.747,0,0,0,.221-.646,4.324,4.324,0,0,0,.041-.524v-.866A1.037,1.037,0,0,1,271.695,446.354Zm6.351,3.943a2.413,2.413,0,0,1-.852-.286,1.521,1.521,0,0,1-.581-.606,2.164,2.164,0,0,1-.213-1.031v-4.991h-1.407v-1.554H276.4v-2.536h2.325v2.536h1.7v1.554h-1.7v4.189a.787.787,0,0,0,.982.982c.131,0,.257-.006.376-.017a2.949,2.949,0,0,0,.344-.049v1.8a5.436,5.436,0,0,1-.655.066c-.241.01-.474.016-.7.016A6.812,6.812,0,0,1,278.046,450.3Zm19.242-.008-.883-2.6h-4.371l-.916,2.6h-2.586l4.419-11.682h2.636l4.37,11.682Zm-4.583-4.516h3.028l-1.474-4.287h-.032Zm-29.6,4.516v-4.778a2.96,2.96,0,0,0-.327-1.562,1.268,1.268,0,0,0-1.162-.516,1.611,1.611,0,0,0-1.375.564,3.137,3.137,0,0,0-.426,1.857v4.434h-2.325V438.608h2.325v4.4h.049A2.685,2.685,0,0,1,261,441.938a3.047,3.047,0,0,1,1.343-.336,3.975,3.975,0,0,1,1.531.253,2.274,2.274,0,0,1,.941.7,2.729,2.729,0,0,1,.483,1.1,6.848,6.848,0,0,1,.139,1.432v5.2Zm-11.835,0-1.981-7.952h-.033l-1.948,7.952h-2.6l-3.094-11.682h2.57l1.85,7.952h.033l2.03-7.952H250.5l2,8.05h.032l1.916-8.05h2.521l-3.143,11.682Zm-23.575-.356a17.3,17.3,0,0,1-1.716-.633,13.413,13.413,0,0,1-5.141-4.541,5.85,5.85,0,0,1-1.229-3.111,3.371,3.371,0,0,1,1.053-2.509,1.107,1.107,0,0,1,.8-.377c.2,0,.4,0,.577.011h.067c.176,0,.394,0,.61.516.251.6.853,2.082.928,2.233a.554.554,0,0,1,.025.527,2.056,2.056,0,0,1-.3.5c-.151.175-.316.392-.451.527-.151.15-.308.313-.132.614a9.059,9.059,0,0,0,1.674,2.083,8.227,8.227,0,0,0,2.42,1.493c.3.15.477.125.652-.076s.752-.878.953-1.179.4-.251.677-.15,1.756.828,2.056.978.5.226.577.351a2.511,2.511,0,0,1-.176,1.43,3.1,3.1,0,0,1-2.031,1.43,4.936,4.936,0,0,1-.73.058A3.825,3.825,0,0,1,227.7,449.933Z" transform="translate(-213.586 -432.286)"/></svg>